<?xml version="1.0" standalone="no"?>
<!DOCTYPE svg PUBLIC "-//W3C//DTD SVG 20010904//EN"
 "http://www.w3.org/TR/2001/REC-SVG-20010904/DTD/svg10.dtd">
<svg version="1.0" xmlns="http://www.w3.org/2000/svg"
 width="580.000000pt" height="446.000000pt" viewBox="0 0 580.000000 446.000000"
 preserveAspectRatio="xMidYMid meet">
<metadata>
Created by potrace 1.16, written by Peter Selinger 2001-2019
</metadata>
<g transform="translate(0.000000,446.000000) scale(0.100000,-0.100000)"
fill="#000000" stroke="none">
<path d="M2226 4208 c-60 -11 -157 -55 -214 -97 -62 -46 -129 -142 -152 -220
-20 -64 -20 -89 -18 -1056 l3 -990 27 -51 c49 -93 88 -117 419 -261 167 -73
473 -207 679 -298 206 -91 388 -168 406 -171 40 -7 97 17 120 51 9 15 69 69
132 121 111 92 115 94 166 94 63 0 114 31 142 87 18 36 19 76 19 1013 l0 975
-26 56 c-30 64 -89 133 -131 155 -16 8 -345 147 -733 309 -751 314 -724 305
-839 283z m492 -247 c208 -87 522 -219 697 -292 176 -73 335 -143 352 -156 18
-13 45 -45 60 -71 l28 -47 3 -945 c1 -520 0 -955 -3 -967 -9 -40 -33 -53 -93
-53 -56 -1 -59 -2 -147 -75 l-90 -74 -5 907 -5 907 -27 50 c-33 62 -78 105
-143 138 -27 13 -228 102 -445 197 -818 358 -904 397 -914 413 -13 21 7 60 61
114 62 63 172 111 261 112 21 1 169 -56 410 -158z"/>
<path d="M142 703 l3 -28 172 -3 173 -2 6 25 c8 30 -1 44 -18 27 -15 -15 -304
-17 -313 -2 -12 20 -26 9 -23 -17z"/>
<path d="M1375 720 c-4 -6 -66 -10 -155 -10 -81 0 -155 -3 -164 -6 -14 -5 -14
-8 -1 -27 20 -29 21 -175 1 -202 -12 -17 -12 -22 0 -39 20 -29 19 -174 -2
-204 l-15 -22 153 0 c123 0 158 -3 176 -16 20 -14 23 -14 28 0 16 41 1 46
-146 46 l-140 0 0 215 0 215 139 0 c145 0 151 2 151 46 0 16 -16 19 -25 4z"/>
<path d="M4775 720 c-4 -6 -66 -10 -155 -10 -81 0 -155 -3 -164 -6 -14 -5 -14
-8 -1 -27 20 -29 21 -175 1 -202 -12 -17 -12 -22 0 -39 20 -29 19 -174 -2
-204 l-15 -22 153 0 c121 0 158 -3 175 -15 25 -17 38 -6 28 25 -6 19 -15 20
-146 20 l-139 0 0 215 0 215 139 0 c145 0 151 2 151 46 0 16 -16 19 -25 4z"/>
<path d="M5590 720 c-8 -5 -79 -10 -157 -10 -78 0 -148 -3 -157 -6 -14 -5 -14
-8 -1 -27 20 -28 20 -158 1 -195 -12 -24 -12 -30 0 -47 19 -26 19 -161 -1
-198 l-14 -28 32 3 32 3 3 228 2 227 139 0 c135 0 139 1 145 22 7 28 -4 40
-24 28z"/>
<path d="M560 701 c0 -5 5 -13 10 -16 14 -8 13 -198 -1 -212 -8 -8 -8 -17 0
-31 14 -27 14 -205 0 -219 -15 -15 5 -26 31 -18 20 6 20 14 18 253 l-3 247
-27 3 c-16 2 -28 -1 -28 -7z"/>
<path d="M647 703 c-4 -3 -7 -57 -7 -120 l0 -113 125 0 126 0 -3 118 -3 117
-35 3 c-33 3 -34 3 -17 -15 13 -15 17 -38 17 -106 l0 -87 -85 0 -85 0 0 83 c0
59 5 89 16 105 15 21 14 22 -14 22 -16 0 -32 -3 -35 -7z"/>
<path d="M917 703 c-4 -3 -7 -115 -7 -249 0 -215 2 -243 16 -248 9 -4 25 -4
35 -1 17 6 17 8 4 21 -21 22 -22 196 0 214 13 11 13 15 0 33 -22 32 -21 194 2
219 15 17 15 18 -14 18 -16 0 -33 -3 -36 -7z"/>
<path d="M1642 702 c-10 -7 -10 -11 3 -22 21 -17 22 -176 0 -207 -13 -18 -13
-22 0 -33 22 -18 21 -177 -1 -208 l-15 -22 148 0 c129 0 152 3 180 20 68 41
86 144 34 202 l-29 33 24 28 c13 16 24 38 25 50 4 78 -14 117 -65 144 -35 19
-281 31 -304 15z m284 -51 c44 -27 60 -77 40 -125 -8 -19 -23 -40 -34 -47 -19
-12 -18 -14 14 -44 29 -28 34 -39 34 -80 0 -40 -5 -52 -34 -81 l-34 -34 -106
0 -106 0 0 215 0 215 98 0 c78 0 103 -4 128 -19z"/>
<path d="M1720 560 l0 -90 80 0 c94 0 131 15 150 59 15 37 7 74 -22 101 -19
17 -35 20 -115 20 l-93 0 0 -90z m180 40 c50 -50 6 -100 -89 -100 l-51 0 0 60
0 60 60 0 c47 0 64 -4 80 -20z"/>
<path d="M1720 349 l0 -102 91 5 c111 7 142 24 147 83 8 92 -23 115 -153 115
l-85 0 0 -101z m185 46 c14 -13 25 -31 25 -40 0 -9 -11 -27 -25 -40 -20 -21
-34 -25 -85 -25 l-60 0 0 65 0 65 60 0 c51 0 65 -4 85 -25z"/>
<path d="M2200 688 c-58 -30 -86 -72 -94 -147 -4 -32 -13 -65 -21 -71 -12 -10
-12 -14 -1 -26 8 -7 17 -37 21 -66 10 -78 31 -115 83 -145 34 -20 58 -26 101
-26 104 0 168 57 180 163 4 33 12 65 18 71 9 9 8 20 -2 43 -8 17 -17 53 -20
79 -16 120 -150 183 -265 125z m160 -36 c59 -32 71 -68 68 -210 l-3 -124 -37
-33 c-48 -45 -96 -53 -156 -29 -73 30 -87 64 -87 204 0 95 3 121 18 143 42 64
128 85 197 49z"/>
<path d="M2202 622 c-37 -35 -45 -72 -40 -196 3 -92 4 -97 34 -127 54 -54 148
-50 194 9 17 22 20 41 20 149 l0 125 -34 34 c-30 30 -40 34 -89 34 -46 0 -60
-4 -85 -28z m146 -28 c24 -27 31 -101 11 -121 -8 -8 -8 -17 0 -31 20 -38 13
-100 -14 -127 -71 -72 -189 37 -131 121 12 17 12 22 0 39 -19 25 -18 63 4 105
27 55 86 61 130 14z"/>
<path d="M2682 689 c-56 -28 -82 -67 -92 -140 -5 -33 -14 -66 -19 -73 -8 -10
-7 -21 4 -42 8 -16 15 -47 15 -70 0 -102 113 -180 224 -154 79 18 123 69 136
159 5 34 14 69 20 76 9 11 8 19 -4 37 -9 12 -16 38 -16 58 0 128 -146 209
-268 149z m153 -33 c19 -8 43 -29 53 -46 41 -67 35 -269 -10 -318 -26 -28 -76
-52 -110 -52 -38 0 -103 38 -123 72 -16 27 -19 52 -19 143 0 125 10 157 63
192 39 27 95 30 146 9z"/>
<path d="M2693 630 c-40 -24 -53 -68 -52 -175 0 -101 15 -143 58 -172 59 -40
149 -21 183 39 17 32 18 236 0 270 -31 57 -127 76 -189 38z m111 -14 c19 -8
36 -22 39 -33 17 -60 17 -76 2 -99 -14 -22 -14 -26 1 -49 36 -55 -11 -145 -76
-145 -65 0 -111 83 -77 142 15 25 15 30 0 56 -24 42 -3 109 40 127 40 18 32
17 71 1z"/>
<path d="M3055 683 c21 -39 20 -171 -1 -201 -14 -20 -14 -24 0 -44 22 -31 22
-175 0 -206 -13 -19 -13 -23 0 -28 8 -3 24 0 35 6 21 11 21 16 19 253 l-3 242
-32 3 -32 3 14 -28z"/>
<path d="M3134 697 c-2 -7 -3 -77 -2 -155 l3 -143 120 145 c65 79 121 149 123
155 6 19 -43 12 -53 -8 -14 -26 -145 -185 -156 -189 -15 -6 -10 140 6 172 8
15 15 30 15 32 0 11 -51 2 -56 -9z"/>
<path d="M3391 681 c-15 -16 -53 -60 -84 -99 l-58 -70 88 -151 c48 -83 95
-154 105 -157 31 -9 41 6 20 30 -11 11 -52 77 -92 145 -85 145 -87 131 31 252
73 77 75 79 46 79 -19 0 -38 -10 -56 -29z"/>
<path d="M3609 687 c-105 -56 -100 -208 8 -254 19 -7 36 -20 39 -28 5 -11 11
-12 24 -5 43 23 92 6 105 -37 4 -17 -1 -30 -20 -49 -23 -23 -32 -26 -76 -22
-33 4 -58 13 -74 28 -20 19 -27 21 -40 10 -24 -20 -18 -35 20 -53 44 -21 146
-22 184 -2 33 17 41 33 41 85 0 51 -28 72 -122 96 -118 28 -155 85 -108 162
21 35 72 62 115 62 14 0 53 -9 86 -20 47 -16 64 -18 75 -9 23 19 17 24 -50 42
-90 24 -153 22 -207 -6z"/>
<path d="M3963 693 c23 -26 25 -204 2 -223 -13 -11 -13 -14 0 -27 18 -17 21
-182 5 -213 -12 -23 1 -34 30 -25 20 6 20 14 18 253 l-3 247 -35 3 c-33 3 -34
3 -17 -15z"/>
<path d="M4047 703 c-4 -3 -7 -57 -7 -120 l0 -113 125 0 126 0 -3 118 -3 117
-34 3 c-33 3 -33 3 -17 -20 12 -16 16 -45 16 -105 l0 -83 -85 0 -85 0 0 83 c0
59 5 89 16 105 15 21 14 22 -14 22 -16 0 -32 -3 -35 -7z"/>
<path d="M4317 703 c-4 -3 -7 -115 -7 -249 0 -215 2 -243 16 -248 9 -4 25 -4
35 -1 17 6 17 8 4 21 -21 22 -21 190 0 214 14 15 14 18 0 30 -23 19 -22 196 2
222 15 17 15 18 -14 18 -16 0 -33 -3 -36 -7z"/>
<path d="M4863 693 c24 -27 25 -204 2 -223 -14 -12 -14 -15 0 -30 22 -25 21
-186 -2 -212 -16 -17 -11 -18 138 -18 121 0 159 -3 176 -15 23 -16 34 -5 25
28 -4 15 -19 17 -143 17 l-139 0 -2 233 -3 232 -35 3 c-33 3 -34 3 -17 -15z"/>
<path d="M4947 703 c-4 -3 -7 -105 -7 -225 l0 -218 129 0 c114 0 129 2 133 17
9 33 -2 44 -25 28 -15 -11 -47 -15 -109 -15 l-88 0 0 69 c0 48 4 72 15 81 13
11 13 15 0 33 -21 30 -21 184 1 215 15 21 14 22 -14 22 -16 0 -32 -3 -35 -7z"/>
<path d="M3633 640 c-34 -21 -47 -49 -41 -96 4 -33 38 -54 132 -79 77 -21 116
-59 116 -112 0 -21 -7 -49 -16 -62 -39 -55 -156 -68 -237 -27 -41 20 -49 21
-67 9 -25 -18 -26 -33 -1 -33 10 0 36 -7 57 -17 58 -24 181 -22 225 3 73 43
99 128 61 204 -13 27 -29 40 -69 56 -29 11 -61 28 -71 37 -13 12 -21 14 -29 6
-6 -6 -21 -9 -34 -7 -19 2 -25 10 -27 39 -4 43 12 59 67 66 33 5 44 1 67 -22
24 -24 28 -25 42 -12 50 51 -103 92 -175 47z"/>
<path d="M147 643 c-4 -3 -7 -15 -7 -26 0 -15 4 -17 18 -11 9 4 38 9 65 12
l47 4 0 -70 c0 -50 -4 -73 -15 -82 -14 -12 -14 -15 0 -30 18 -20 21 -179 4
-212 -14 -25 -7 -32 26 -24 l25 6 0 220 0 220 -78 0 c-43 0 -82 -3 -85 -7z"/>
<path d="M330 431 l0 -221 25 -6 c33 -8 40 -1 26 24 -18 33 -14 197 4 212 14
12 14 15 0 30 -10 11 -15 38 -15 84 l0 68 48 -4 c26 -3 55 -8 65 -13 16 -6 18
-4 15 16 -3 23 -7 24 -85 27 l-83 3 0 -220z"/>
<path d="M1130 560 l0 -90 115 0 115 0 0 31 c0 29 -1 30 -22 15 -15 -11 -46
-16 -95 -16 l-73 0 0 60 0 60 94 0 c73 0 98 -4 110 -16 15 -14 17 -14 22 0 16
41 1 46 -136 46 l-130 0 0 -90z"/>
<path d="M4530 560 l0 -90 115 0 115 0 0 30 c0 30 -1 30 -24 15 -18 -12 -44
-15 -97 -13 l-74 3 -3 58 -3 57 97 0 c76 0 101 -4 116 -16 16 -16 18 -16 24 0
16 41 1 46 -136 46 l-130 0 0 -90z"/>
<path d="M5340 560 l0 -90 120 0 120 0 0 31 c0 29 -1 30 -22 15 -16 -11 -46
-16 -100 -16 l-78 0 0 60 0 60 99 0 c77 0 101 -3 112 -16 11 -13 14 -13 21 0
4 8 5 21 2 30 -5 14 -27 16 -140 16 l-134 0 0 -90z"/>
<path d="M3181 429 l-51 -61 0 -78 c0 -70 2 -79 20 -85 31 -10 40 2 24 33 -7
15 -14 47 -14 72 1 36 7 53 35 85 18 22 36 37 38 35 22 -27 107 -195 103 -206
-3 -7 3 -16 13 -19 20 -6 54 4 49 14 -13 28 -151 262 -158 266 -4 3 -31 -22
-59 -56z"/>
<path d="M640 330 c0 -119 0 -120 24 -126 36 -9 49 3 31 29 -10 15 -15 47 -15
104 l0 83 85 0 85 0 0 -89 c0 -66 -4 -93 -15 -105 -13 -13 -13 -15 4 -21 10
-3 26 -3 35 1 14 5 16 24 16 125 l0 119 -125 0 -125 0 0 -120z"/>
<path d="M1130 355 l0 -95 130 0 c136 0 152 5 136 46 -5 14 -8 14 -28 0 -16
-12 -47 -16 -110 -16 l-88 0 0 65 0 65 65 0 c40 0 78 -6 95 -15 l30 -16 0 31
0 30 -115 0 -115 0 0 -95z"/>
<path d="M4040 330 l0 -120 26 -6 c32 -8 51 8 29 26 -11 9 -15 33 -15 101 l0
89 85 0 85 0 0 -89 c0 -68 -4 -92 -16 -102 -14 -11 -14 -13 1 -21 8 -5 24 -6
35 -3 18 6 20 16 20 126 l0 119 -125 0 -125 0 0 -120z"/>
<path d="M4530 355 l0 -95 129 0 c121 0 130 1 136 20 10 31 -3 42 -29 24 -18
-11 -46 -14 -112 -12 l-89 3 0 60 0 60 67 3 c46 2 77 -2 98 -13 l30 -16 0 31
0 30 -115 0 -115 0 0 -95z"/>
<path d="M5342 333 l3 -118 32 -3 32 -3 -14 28 c-9 17 -15 56 -15 101 l0 72
84 0 c47 0 88 -4 91 -10 12 -20 26 -9 23 18 l-3 27 -118 3 -118 3 3 -118z"/>
</g>
</svg>
