<?xml version="1.0" standalone="no"?>
<!DOCTYPE svg PUBLIC "-//W3C//DTD SVG 20010904//EN"
 "http://www.w3.org/TR/2001/REC-SVG-20010904/DTD/svg10.dtd">
<svg version="1.0" xmlns="http://www.w3.org/2000/svg"
 width="500.000000pt" height="500.000000pt" viewBox="0 0 500.000000 500.000000"
 preserveAspectRatio="xMidYMid meet">

<g transform="translate(0.000000,500.000000) scale(0.100000,-0.100000)"
fill="#000000" stroke="none">
<path d="M892 3002 c-95 -39 -111 -49 -106 -64 3 -11 0 -25 -6 -33 -9 -11 -7
-16 10 -25 11 -6 18 -15 15 -20 -6 -10 37 -84 55 -95 6 -4 -14 -25 -46 -50
-31 -25 -63 -53 -70 -63 -12 -17 -10 -20 27 -31 23 -7 43 -10 46 -8 2 3 -9 8
-26 12 -52 11 -46 20 73 112 74 57 80 60 115 52 20 -5 50 -9 67 -9 47 0 58
-19 31 -49 l-22 -26 26 23 c28 25 60 28 109 10 31 -10 32 -12 15 -25 -11 -7
-14 -13 -8 -13 7 0 15 5 18 10 3 6 11 10 17 10 6 0 5 -7 -3 -17 -13 -15 -12
-15 8 -3 19 12 24 12 43 -5 11 -10 19 -22 18 -26 -7 -17 -171 -141 -192 -145
-13 -2 -52 8 -87 23 -35 14 -75 25 -88 25 -24 -2 -24 -2 -5 13 10 8 15 15 10
15 -5 0 -1 10 10 22 15 18 16 20 2 9 -10 -7 -24 -11 -32 -8 -11 4 -13 -1 -10
-19 4 -24 4 -25 -25 -9 -17 8 -35 15 -42 15 -7 0 9 -11 35 -25 26 -14 56 -25
67 -25 11 0 54 -14 94 -31 l74 -30 105 81 c104 80 105 82 90 104 -16 25 -121
76 -155 76 -11 0 -34 8 -52 17 l-32 17 73 12 c95 14 117 43 66 86 -23 21 -24
23 -8 35 23 17 14 16 -30 -2 -38 -16 -48 -26 -18 -18 10 2 24 -2 30 -10 10
-12 1 -16 -55 -25 -36 -6 -70 -9 -74 -6 -5 3 -26 -4 -48 -16 -48 -24 -48 -24
-48 -5 0 8 4 12 7 10 4 -3 19 5 34 16 14 11 26 18 26 14 0 -3 10 0 23 7 12 6
30 12 41 13 10 1 22 9 27 18 5 9 18 14 28 12 11 -2 22 3 25 11 3 7 12 11 21 8
20 -8 32 24 14 41 -17 16 -142 55 -173 54 -11 0 -72 -21 -134 -47z m213 18
c48 -17 49 -18 25 -28 -14 -6 -52 -22 -85 -37 -33 -15 -82 -36 -110 -46 -48
-17 -49 -18 -22 -24 20 -5 27 -13 27 -31 l0 -24 -47 19 c-93 37 -101 42 -95
63 3 11 10 17 18 14 39 -16 45 -15 15 2 l-33 19 103 46 c116 51 132 53 204 27z
m65 -45 c-14 -8 -29 -14 -35 -14 -5 0 1 6 15 14 14 8 30 14 35 14 6 0 -1 -6
-15 -14z m-100 -45 c-8 -5 -19 -10 -25 -10 -5 0 -3 5 5 10 8 5 20 10 25 10 6
0 3 -5 -5 -10z m-190 -91 c13 -7 12 -8 -2 -9 -12 0 -18 -8 -18 -22 l0 -23 -20
25 c-37 47 -17 61 40 29z m310 -3 c0 -7 -6 -13 -12 -13 -7 -1 -44 -6 -83 -12
-92 -14 -95 -14 -95 7 0 15 2 15 11 2 6 -9 12 -11 15 -5 2 6 20 9 39 7 29 -3
35 -1 35 14 0 16 2 17 11 4 8 -11 12 -12 16 -3 3 9 10 10 24 3 15 -9 19 -7 19
5 0 9 5 13 10 10 6 -3 10 -12 10 -19z m17 2 c-3 -8 -6 -5 -6 6 -1 11 2 17 5
13 3 -3 4 -12 1 -19z m-294 -33 c9 9 17 13 17 8 0 -15 -23 -33 -42 -33 -12 0
-18 7 -18 22 0 20 1 21 13 4 13 -17 14 -17 30 -1z"/>
<path d="M1090 2890 c-8 -5 -10 -10 -5 -10 6 0 17 5 25 10 8 5 11 10 5 10 -5
0 -17 -5 -25 -10z"/>
<path d="M1410 2885 c0 -10 10 -15 30 -15 l30 0 0 -90 c0 -83 1 -90 20 -90 19
0 20 7 20 90 l0 90 30 0 c20 0 30 5 30 15 0 12 -16 15 -80 15 -64 0 -80 -3
-80 -15z"/>
<path d="M1650 2795 c0 -98 1 -105 20 -105 17 0 20 7 20 45 l0 45 45 0 45 0 0
-45 c0 -38 3 -45 20 -45 19 0 20 7 20 105 0 98 -1 105 -20 105 -17 0 -20 -7
-20 -45 l0 -45 -45 0 -45 0 0 45 c0 38 -3 45 -20 45 -19 0 -20 -7 -20 -105z"/>
<path d="M1910 2795 l0 -105 70 0 c56 0 70 3 70 15 0 11 -12 15 -50 15 -49 0
-50 1 -50 30 0 29 2 30 45 30 33 0 45 4 45 15 0 11 -12 15 -45 15 -43 0 -45 1
-45 30 0 29 1 30 50 30 38 0 50 4 50 15 0 12 -14 15 -70 15 l-70 0 0 -105z"/>
<path d="M2130 2795 l0 -105 55 0 c42 0 60 5 75 20 24 24 25 38 4 69 -12 17
-13 26 -5 34 18 18 13 65 -8 77 -11 5 -42 10 -70 10 l-51 0 0 -105z m111 69
c20 -24 -1 -48 -45 -52 -35 -3 -36 -2 -36 32 0 34 2 36 34 36 18 0 39 -7 47
-16z m3 -96 c17 -27 -5 -52 -48 -56 l-36 -3 0 41 0 41 36 -3 c22 -2 42 -10 48
-20z"/>
<path d="M2386 2875 c-43 -47 -42 -109 2 -157 37 -40 102 -40 143 1 40 40 41
105 3 150 -22 27 -32 31 -75 31 -40 0 -54 -5 -73 -25z m121 -10 c27 -19 37
-59 23 -101 -20 -58 -82 -73 -125 -29 -50 49 -18 145 49 145 17 0 41 -7 53
-15z"/>
<path d="M2666 2869 c-60 -71 -16 -179 73 -179 48 0 99 40 102 80 3 57 -2 79
-27 104 -21 21 -36 26 -74 26 -42 0 -52 -4 -74 -31z m133 -15 c56 -72 -10
-170 -94 -138 -26 10 -48 62 -40 100 12 65 95 88 134 38z"/>
<path d="M2930 2795 c0 -85 3 -105 14 -105 11 0 16 14 18 47 2 25 8 48 13 50
6 2 24 -19 40 -47 16 -27 35 -50 42 -50 19 0 17 5 -22 66 -19 30 -35 57 -35
61 0 4 17 24 37 45 51 52 20 49 -34 -4 l-43 -42 0 42 c0 31 -4 42 -15 42 -12
0 -15 -18 -15 -105z"/>
<path d="M3166 2885 c-34 -35 -13 -77 49 -98 34 -12 40 -18 40 -43 0 -25 -4
-29 -32 -32 -24 -2 -35 2 -45 17 -19 30 -43 28 -27 -1 16 -31 28 -38 70 -38
39 0 69 24 69 56 0 30 -12 41 -63 63 -40 17 -48 25 -45 43 4 29 43 36 69 12
22 -20 38 -11 23 14 -15 24 -86 28 -108 7z"/>
<path d="M3370 2795 c0 -87 3 -105 15 -105 11 0 15 12 15 50 l0 50 55 0 55 0
0 -50 c0 -38 4 -50 15 -50 12 0 15 18 15 105 0 87 -3 105 -15 105 -11 0 -15
-12 -15 -45 l0 -45 -55 0 -55 0 0 45 c0 33 -4 45 -15 45 -12 0 -15 -18 -15
-105z"/>
<path d="M3630 2795 l0 -105 65 0 c37 0 65 4 65 10 0 6 -25 10 -56 10 l-55 0
3 38 c3 37 3 37 51 40 63 4 61 22 -3 22 l-50 0 0 35 0 35 55 0 c30 0 55 5 55
10 0 6 -28 10 -65 10 l-65 0 0 -105z"/>
<path d="M3840 2795 l0 -105 65 0 c37 0 65 4 65 10 0 6 -22 10 -50 10 l-50 0
0 95 c0 78 -3 95 -15 95 -12 0 -15 -18 -15 -105z"/>
<path d="M4050 2795 c0 -87 3 -105 15 -105 11 0 15 12 15 50 l0 50 40 0 c22 0
40 5 40 10 0 6 -18 10 -40 10 -39 0 -40 1 -40 35 l0 35 50 0 c28 0 50 5 50 10
0 6 -28 10 -65 10 l-65 0 0 -105z"/>
<path d="M1032 2755 c-16 -19 -3 -19 22 0 14 11 16 15 5 15 -8 -1 -20 -7 -27
-15z"/>
<path d="M938 2713 c7 -3 16 -2 19 1 4 3 -2 6 -13 5 -11 0 -14 -3 -6 -6z"/>
<path d="M1160 2710 c-9 -6 -10 -10 -3 -10 6 0 15 5 18 10 8 12 4 12 -15 0z"/>
<path d="M1029 2693 c-13 -16 -12 -17 4 -4 9 7 17 15 17 17 0 8 -8 3 -21 -13z"/>
<path d="M1249 2673 c-13 -16 -12 -17 4 -4 9 7 17 15 17 17 0 8 -8 3 -21 -13z"/>
<path d="M984 2658 l-19 -23 23 19 c21 18 27 26 19 26 -2 0 -12 -10 -23 -22z"/>
<path d="M798 2653 c7 -3 16 -2 19 1 4 3 -2 6 -13 5 -11 0 -14 -3 -6 -6z"/>
<path d="M850 2650 c-9 -6 -10 -10 -3 -10 6 0 15 5 18 10 8 12 4 12 -15 0z"/>
<path d="M1204 2638 l-19 -23 23 19 c12 11 22 21 22 23 0 8 -8 2 -26 -19z"/>
<path d="M880 2640 c-9 -6 -10 -10 -3 -10 6 0 15 5 18 10 8 12 4 12 -15 0z"/>
<path d="M1154 2598 l-19 -23 23 19 c21 18 27 26 19 26 -2 0 -12 -10 -23 -22z"/>
<path d="M1114 2569 c-4 -6 -20 -9 -38 -6 -28 5 -29 5 -8 -5 12 -6 22 -15 22
-20 0 -14 18 0 30 23 11 20 6 27 -6 8z"/>
</g>
</svg>
